<?xml version="1.0" encoding="UTF-8" standalone="no"?>
<!DOCTYPE svg PUBLIC "-//W3C//DTD SVG 1.1//EN"
 "http://www.w3.org/Graphics/SVG/1.1/DTD/svg11.dtd">
<!-- Generated by graphviz version 2.44.1 (0)
 -->
<!-- Title: G Pages: 1 -->
<svg width="311pt" height="225pt"
 viewBox="0.00 0.00 311.00 225.00" xmlns="http://www.w3.org/2000/svg" xmlns:xlink="http://www.w3.org/1999/xlink">
<g id="graph0" class="graph" transform="scale(1 1) rotate(0) translate(4 221)">
<title>G</title>
<polygon fill="white" stroke="transparent" points="-4,4 -4,-221 307,-221 307,4 -4,4"/>
<g id="clust1" class="cluster">
<title>cluster_0</title>
<polygon fill="none" stroke="white" points="8,-8 8,-209 64,-209 64,-8 8,-8"/>
<text text-anchor="middle" x="36" y="-193.8" font-family="Times,serif" font-size="14.00">Input x</text>
</g>
<g id="clust2" class="cluster">
<title>cluster_1</title>
<polygon fill="none" stroke="white" points="85,-87 85,-162 137,-162 137,-87 85,-87"/>
<text text-anchor="middle" x="111" y="-146.8" font-family="Times,serif" font-size="14.00">sum</text>
</g>
<g id="clust4" class="cluster">
<title>cluster_2</title>
<polygon fill="none" stroke="white" points="158,-84 158,-142 215,-142 215,-84 158,-84"/>
</g>
<g id="clust5" class="cluster">
<title>cluster_3</title>
<polygon fill="none" stroke="white" points="242,-87 242,-162 296,-162 296,-87 242,-87"/>
<text text-anchor="middle" x="269" y="-146.8" font-family="Times,serif" font-size="14.00">Output</text>
</g>
<!-- x1 -->
<g id="node1" class="node">
<title>x1</title>
<ellipse fill="none" stroke="green" cx="35.5" cy="-159" rx="19.5" ry="19.5"/>
<text text-anchor="middle" x="35.5" y="-155.3" font-family="Times,serif" font-size="14.00">x1</text>
</g>
<!-- h11 -->
<g id="node7" class="node">
<title>h11</title>
<ellipse fill="none" stroke="blue" cx="111" cy="-113" rx="18" ry="18"/>
<text text-anchor="middle" x="111" y="-109.3" font-family="Times,serif" font-size="14.00">+</text>
</g>
<!-- x1&#45;&gt;h11 -->
<g id="edge1" class="edge">
<title>x1&#45;&gt;h11</title>
<path fill="none" stroke="black" d="M52.45,-149.02C62.34,-142.83 75.24,-134.75 86.31,-127.82"/>
<polygon fill="black" stroke="black" points="88.46,-130.61 95.08,-122.33 84.75,-124.67 88.46,-130.61"/>
</g>
<!-- x2 -->
<g id="node2" class="node">
<title>x2</title>
<ellipse fill="none" stroke="green" cx="35.5" cy="-113" rx="19.5" ry="19.5"/>
<text text-anchor="middle" x="35.5" y="-109.3" font-family="Times,serif" font-size="14.00">x2</text>
</g>
<!-- x2&#45;&gt;h11 -->
<g id="edge2" class="edge">
<title>x2&#45;&gt;h11</title>
<path fill="none" stroke="black" d="M55.04,-113C63.36,-113 73.34,-113 82.49,-113"/>
<polygon fill="black" stroke="black" points="82.72,-116.5 92.72,-113 82.72,-109.5 82.72,-116.5"/>
</g>
<!-- p1 -->
<g id="node3" class="node">
<title>p1</title>
<ellipse fill="black" stroke="black" cx="35.5" cy="-85" rx="1.8" ry="1.8"/>
</g>
<!-- p2 -->
<g id="node4" class="node">
<title>p2</title>
<ellipse fill="black" stroke="black" cx="35.5" cy="-74" rx="1.8" ry="1.8"/>
</g>
<!-- p3 -->
<g id="node5" class="node">
<title>p3</title>
<ellipse fill="black" stroke="black" cx="35.5" cy="-63" rx="1.8" ry="1.8"/>
</g>
<!-- x3 -->
<g id="node6" class="node">
<title>x3</title>
<ellipse fill="none" stroke="green" cx="35.5" cy="-35" rx="19.5" ry="19.5"/>
<text text-anchor="middle" x="35.5" y="-31.3" font-family="Times,serif" font-size="14.00">x3</text>
</g>
<!-- x3&#45;&gt;h11 -->
<g id="edge3" class="edge">
<title>x3&#45;&gt;h11</title>
<path fill="none" stroke="black" d="M49.64,-48.94C61.1,-61.11 77.87,-78.9 90.83,-92.65"/>
<polygon fill="black" stroke="black" points="88.54,-95.33 97.94,-100.21 93.63,-90.53 88.54,-95.33"/>
</g>
<!-- s -->
<g id="node8" class="node">
<title>s</title>
<polygon fill="none" stroke="red" points="207,-133.5 166,-133.5 166,-92.5 207,-92.5 207,-133.5"/>
<text text-anchor="middle" x="186.5" y="-109.3" font-family="Times,serif" font-size="14.00">Step</text>
</g>
<!-- h11&#45;&gt;s -->
<g id="edge4" class="edge">
<title>h11&#45;&gt;s</title>
<path fill="none" stroke="black" d="M129.04,-113C136.97,-113 146.63,-113 155.7,-113"/>
<polygon fill="black" stroke="black" points="155.94,-116.5 165.94,-113 155.94,-109.5 155.94,-116.5"/>
</g>
<!-- o -->
<!-- s&#45;&gt;o -->
<g id="edge5" class="edge">
<title>s&#45;&gt;o</title>
<path fill="none" stroke="black" d="M207.4,-113C217.38,-113 229.64,-113 240.51,-113"/>
<polygon fill="black" stroke="black" points="240.78,-116.5 250.78,-113 240.78,-109.5 240.78,-116.5"/>
<text text-anchor="middle" x="228.5" y="-116.8" font-family="Times,serif" font-size="14.00">a</text>
</g>
</g>
</svg>
