<?xml version="1.0" encoding="UTF-8" standalone="no"?>
<!DOCTYPE svg PUBLIC "-//W3C//DTD SVG 1.1//EN"
 "http://www.w3.org/Graphics/SVG/1.1/DTD/svg11.dtd">
<!-- Generated by graphviz version 2.44.1 (0)
 -->
<!-- Title: G Pages: 1 -->
<svg width="224pt" height="98pt"
 viewBox="0.00 0.00 224.00 98.00" xmlns="http://www.w3.org/2000/svg" xmlns:xlink="http://www.w3.org/1999/xlink">
<g id="graph0" class="graph" transform="scale(1 1) rotate(0) translate(4 94)">
<title>G</title>
<polygon fill="white" stroke="transparent" points="-4,4 -4,-94 220,-94 220,4 -4,4"/>
<!-- x -->
<g id="node1" class="node">
<title>x</title>
<text text-anchor="middle" x="27" y="-68.3" font-family="Times,serif" font-size="14.00">x</text>
</g>
<!-- p -->
<g id="node4" class="node">
<title>p</title>
<ellipse fill="none" stroke="#ee0000" cx="108" cy="-45" rx="18" ry="18"/>
<text text-anchor="middle" x="108" y="-41.3" font-family="Times,serif" font-size="14.00">+</text>
</g>
<!-- x&#45;&gt;p -->
<g id="edge1" class="edge">
<title>x&#45;&gt;p</title>
<path fill="none" stroke="black" d="M54.31,-63.01C62.95,-60.05 72.55,-56.77 81.16,-53.83"/>
<polygon fill="black" stroke="black" points="82.37,-57.12 90.7,-50.57 80.11,-50.49 82.37,-57.12"/>
</g>
<!-- y -->
<g id="node2" class="node">
<title>y</title>
<text text-anchor="middle" x="27" y="-14.3" font-family="Times,serif" font-size="14.00">y</text>
</g>
<!-- y&#45;&gt;p -->
<g id="edge2" class="edge">
<title>y&#45;&gt;p</title>
<path fill="none" stroke="black" d="M54.31,-26.99C62.95,-29.95 72.55,-33.23 81.16,-36.17"/>
<polygon fill="black" stroke="black" points="80.11,-39.51 90.7,-39.43 82.37,-32.88 80.11,-39.51"/>
</g>
<!-- z -->
<g id="node3" class="node">
<title>z</title>
<text text-anchor="middle" x="189" y="-41.3" font-family="Times,serif" font-size="14.00">z</text>
</g>
<!-- p&#45;&gt;z -->
<g id="edge3" class="edge">
<title>p&#45;&gt;z</title>
<path fill="none" stroke="black" d="M126.14,-45C133.64,-45 142.75,-45 151.64,-45"/>
<polygon fill="black" stroke="black" points="151.87,-48.5 161.87,-45 151.87,-41.5 151.87,-48.5"/>
</g>
</g>
</svg>
