<?xml version="1.0" encoding="UTF-8" standalone="no"?>
<!DOCTYPE svg PUBLIC "-//W3C//DTD SVG 1.1//EN"
 "http://www.w3.org/Graphics/SVG/1.1/DTD/svg11.dtd">
<!-- Generated by graphviz version 2.43.20190912.0211 (20190912.0211)
 -->
<!-- Title: G Pages: 1 -->
<svg width="422pt" height="113pt"
 viewBox="0.00 0.00 422.00 113.00" xmlns="http://www.w3.org/2000/svg" xmlns:xlink="http://www.w3.org/1999/xlink">
<g id="graph0" class="graph" transform="scale(1 1) rotate(0) translate(4 109)">
<title>G</title>
<polygon fill="white" stroke="transparent" points="-4,4 -4,-109 418,-109 418,4 -4,4"/>
<text text-anchor="middle" x="207" y="-7.8" font-family="Times,serif" font-size="14.00">无向图</text>
<!-- 1 -->
<g id="node1" class="node">
<title>1</title>
<ellipse fill="none" stroke="black" cx="27" cy="-64" rx="27" ry="18"/>
<text text-anchor="middle" x="27" y="-60.3" font-family="Times,serif" font-size="14.00">1</text>
</g>
<!-- 2 -->
<g id="node2" class="node">
<title>2</title>
<ellipse fill="none" stroke="black" cx="207" cy="-87" rx="27" ry="18"/>
<text text-anchor="middle" x="207" y="-83.3" font-family="Times,serif" font-size="14.00">2</text>
</g>
<!-- 1&#45;&#45;2 -->
<g id="edge1" class="edge">
<title>1&#45;&#45;2</title>
<path fill="none" stroke="black" d="M53.88,-67.34C87.73,-71.72 146.66,-79.33 180.37,-83.69"/>
</g>
<!-- 5 -->
<g id="node3" class="node">
<title>5</title>
<ellipse fill="none" stroke="black" cx="117" cy="-41" rx="27" ry="18"/>
<text text-anchor="middle" x="117" y="-37.3" font-family="Times,serif" font-size="14.00">5</text>
</g>
<!-- 1&#45;&#45;5 -->
<g id="edge3" class="edge">
<title>1&#45;&#45;5</title>
<path fill="none" stroke="black" d="M52.51,-57.59C64.72,-54.4 79.43,-50.56 91.62,-47.37"/>
</g>
<!-- 4 -->
<g id="node4" class="node">
<title>4</title>
<ellipse fill="none" stroke="black" cx="297" cy="-41" rx="27" ry="18"/>
<text text-anchor="middle" x="297" y="-37.3" font-family="Times,serif" font-size="14.00">4</text>
</g>
<!-- 2&#45;&#45;4 -->
<g id="edge4" class="edge">
<title>2&#45;&#45;4</title>
<path fill="none" stroke="black" d="M228.85,-76.1C242.88,-68.77 261.3,-59.14 275.29,-51.82"/>
</g>
<!-- 3 -->
<g id="node5" class="node">
<title>3</title>
<ellipse fill="none" stroke="black" cx="387" cy="-64" rx="27" ry="18"/>
<text text-anchor="middle" x="387" y="-60.3" font-family="Times,serif" font-size="14.00">3</text>
</g>
<!-- 2&#45;&#45;3 -->
<g id="edge6" class="edge">
<title>2&#45;&#45;3</title>
<path fill="none" stroke="black" d="M233.88,-83.66C267.73,-79.28 326.66,-71.67 360.37,-67.31"/>
</g>
<!-- 5&#45;&#45;2 -->
<g id="edge5" class="edge">
<title>5&#45;&#45;2</title>
<path fill="none" stroke="black" d="M138.85,-51.9C152.88,-59.23 171.3,-68.86 185.29,-76.18"/>
</g>
<!-- 5&#45;&#45;4 -->
<g id="edge2" class="edge">
<title>5&#45;&#45;4</title>
<path fill="none" stroke="black" d="M144.26,-41C178.02,-41 236.26,-41 269.92,-41"/>
</g>
<!-- 4&#45;&#45;3 -->
<g id="edge7" class="edge">
<title>4&#45;&#45;3</title>
<path fill="none" stroke="black" d="M322.51,-47.41C334.72,-50.6 349.43,-54.44 361.62,-57.63"/>
</g>
</g>
</svg>
