<?xml version="1.0" encoding="UTF-8" standalone="no"?>
<!DOCTYPE svg PUBLIC "-//W3C//DTD SVG 1.1//EN"
 "http://www.w3.org/Graphics/SVG/1.1/DTD/svg11.dtd">
<!-- Generated by graphviz version 2.43.20190912.0211 (20190912.0211)
 -->
<!-- Title: G Pages: 1 -->
<svg width="607pt" height="212pt"
 viewBox="0.00 0.00 607.00 212.00" xmlns="http://www.w3.org/2000/svg" xmlns:xlink="http://www.w3.org/1999/xlink">
<g id="graph0" class="graph" transform="scale(1 1) rotate(0) translate(4 208)">
<title>G</title>
<polygon fill="white" stroke="transparent" points="-4,4 -4,-208 603,-208 603,4 -4,4"/>
<text text-anchor="middle" x="299.5" y="-7.8" font-family="Times,serif" font-size="14.00">邻接表</text>
<!-- node0 -->
<g id="node1" class="node">
<title>node0</title>
<polygon fill="none" stroke="black" points="0,-23.5 0,-203.5 23,-203.5 23,-23.5 0,-23.5"/>
<text text-anchor="middle" x="11.5" y="-181.8" font-family="Times,serif" font-size="14.00">1</text>
<polyline fill="none" stroke="black" points="0,-167.5 23,-167.5 "/>
<text text-anchor="middle" x="11.5" y="-145.8" font-family="Times,serif" font-size="14.00">2</text>
<polyline fill="none" stroke="black" points="0,-131.5 23,-131.5 "/>
<text text-anchor="middle" x="11.5" y="-109.8" font-family="Times,serif" font-size="14.00">3</text>
<polyline fill="none" stroke="black" points="0,-95.5 23,-95.5 "/>
<text text-anchor="middle" x="11.5" y="-73.8" font-family="Times,serif" font-size="14.00">4</text>
<polyline fill="none" stroke="black" points="0,-59.5 23,-59.5 "/>
<text text-anchor="middle" x="11.5" y="-37.8" font-family="Times,serif" font-size="14.00">5</text>
</g>
<!-- node1_1 -->
<g id="node2" class="node">
<title>node1_1</title>
<polygon fill="none" stroke="black" points="59,-138 59,-161 167,-161 167,-138 59,-138"/>
<text text-anchor="middle" x="86.5" y="-145.8" font-family="Times,serif" font-size="14.00">1</text>
<polyline fill="none" stroke="black" points="114,-138 114,-161 "/>
<text text-anchor="middle" x="140.5" y="-145.8" font-family="Times,serif" font-size="14.00"> </text>
</g>
<!-- node0&#45;&gt;node1_1 -->
<g id="edge3" class="edge">
<title>node0:f1&#45;&gt;node1_1:n</title>
<path fill="none" stroke="black" d="M23,-149.5C35,-149.5 40.25,-149.5 48.88,-149.5"/>
<polygon fill="black" stroke="black" points="49,-153 59,-149.5 49,-146 49,-153"/>
</g>
<!-- node2_1 -->
<g id="node4" class="node">
<title>node2_1</title>
<polygon fill="none" stroke="black" points="59,-174 59,-197 167,-197 167,-174 59,-174"/>
<text text-anchor="middle" x="86.5" y="-181.8" font-family="Times,serif" font-size="14.00">2</text>
<polyline fill="none" stroke="black" points="114,-174 114,-197 "/>
<text text-anchor="middle" x="140.5" y="-181.8" font-family="Times,serif" font-size="14.00"> </text>
</g>
<!-- node0&#45;&gt;node2_1 -->
<g id="edge1" class="edge">
<title>node0:f0&#45;&gt;node2_1:n</title>
<path fill="none" stroke="black" d="M23,-185.5C35,-185.5 40.25,-185.5 48.88,-185.5"/>
<polygon fill="black" stroke="black" points="49,-189 59,-185.5 49,-182 49,-189"/>
</g>
<!-- node2_2 -->
<g id="node5" class="node">
<title>node2_2</title>
<polygon fill="none" stroke="black" points="59,-102 59,-125 167,-125 167,-102 59,-102"/>
<text text-anchor="middle" x="86.5" y="-109.8" font-family="Times,serif" font-size="14.00">2</text>
<polyline fill="none" stroke="black" points="114,-102 114,-125 "/>
<text text-anchor="middle" x="140.5" y="-109.8" font-family="Times,serif" font-size="14.00"> </text>
</g>
<!-- node0&#45;&gt;node2_2 -->
<g id="edge7" class="edge">
<title>node0:f2&#45;&gt;node2_2:n</title>
<path fill="none" stroke="black" d="M23,-113.5C35,-113.5 40.25,-113.5 48.88,-113.5"/>
<polygon fill="black" stroke="black" points="49,-117 59,-113.5 49,-110 49,-117"/>
</g>
<!-- node2_3 -->
<g id="node6" class="node">
<title>node2_3</title>
<polygon fill="none" stroke="black" points="59,-66 59,-89 167,-89 167,-66 59,-66"/>
<text text-anchor="middle" x="86.5" y="-73.8" font-family="Times,serif" font-size="14.00">2</text>
<polyline fill="none" stroke="black" points="114,-66 114,-89 "/>
<text text-anchor="middle" x="140.5" y="-73.8" font-family="Times,serif" font-size="14.00"> </text>
</g>
<!-- node0&#45;&gt;node2_3 -->
<g id="edge9" class="edge">
<title>node0:f3&#45;&gt;node2_3:n</title>
<path fill="none" stroke="black" d="M23,-77.5C35,-77.5 40.25,-77.5 48.88,-77.5"/>
<polygon fill="black" stroke="black" points="49,-81 59,-77.5 49,-74 49,-81"/>
</g>
<!-- node4_3 -->
<g id="node12" class="node">
<title>node4_3</title>
<polygon fill="none" stroke="black" points="59,-30 59,-53 167,-53 167,-30 59,-30"/>
<text text-anchor="middle" x="86.5" y="-37.8" font-family="Times,serif" font-size="14.00">4</text>
<polyline fill="none" stroke="black" points="114,-30 114,-53 "/>
<text text-anchor="middle" x="140.5" y="-37.8" font-family="Times,serif" font-size="14.00"> </text>
</g>
<!-- node0&#45;&gt;node4_3 -->
<g id="edge12" class="edge">
<title>node0:f4&#45;&gt;node4_3:n</title>
<path fill="none" stroke="black" d="M23,-41.5C35,-41.5 40.25,-41.5 48.88,-41.5"/>
<polygon fill="black" stroke="black" points="49,-45 59,-41.5 49,-38 49,-45"/>
</g>
<!-- node5_1 -->
<g id="node13" class="node">
<title>node5_1</title>
<polygon fill="none" stroke="black" points="203,-138 203,-161 311,-161 311,-138 203,-138"/>
<text text-anchor="middle" x="230.5" y="-145.8" font-family="Times,serif" font-size="14.00">5</text>
<polyline fill="none" stroke="black" points="258,-138 258,-161 "/>
<text text-anchor="middle" x="284.5" y="-145.8" font-family="Times,serif" font-size="14.00"> </text>
</g>
<!-- node1_1&#45;&gt;node5_1 -->
<g id="edge4" class="edge">
<title>node1_1:p&#45;&gt;node5_1:n</title>
<path fill="none" stroke="black" d="M167,-149.5C179,-149.5 184.25,-149.5 192.88,-149.5"/>
<polygon fill="black" stroke="black" points="193,-153 203,-149.5 193,-146 193,-153"/>
</g>
<!-- node1_2 -->
<g id="node3" class="node">
<title>node1_2</title>
<polygon fill="none" stroke="black" points="203,-30 203,-53 311,-53 311,-30 203,-30"/>
<text text-anchor="middle" x="230.5" y="-37.8" font-family="Times,serif" font-size="14.00">1</text>
<polyline fill="none" stroke="black" points="258,-30 258,-53 "/>
<text text-anchor="middle" x="284.5" y="-37.8" font-family="Times,serif" font-size="14.00"> </text>
</g>
<!-- node2_4 -->
<g id="node7" class="node">
<title>node2_4</title>
<polygon fill="none" stroke="black" points="347,-30 347,-53 455,-53 455,-30 347,-30"/>
<text text-anchor="middle" x="374.5" y="-37.8" font-family="Times,serif" font-size="14.00">2</text>
<polyline fill="none" stroke="black" points="402,-30 402,-53 "/>
<text text-anchor="middle" x="428.5" y="-37.8" font-family="Times,serif" font-size="14.00">/</text>
</g>
<!-- node1_2&#45;&gt;node2_4 -->
<g id="edge14" class="edge">
<title>node1_2:p&#45;&gt;node2_4</title>
<path fill="none" stroke="black" d="M311,-41.5C319.33,-41.5 328.1,-41.5 336.75,-41.5"/>
<polygon fill="black" stroke="black" points="336.82,-45 346.82,-41.5 336.82,-38 336.82,-45"/>
</g>
<!-- node5_3 -->
<g id="node15" class="node">
<title>node5_3</title>
<polygon fill="none" stroke="black" points="203,-174 203,-197 311,-197 311,-174 203,-174"/>
<text text-anchor="middle" x="230.5" y="-181.8" font-family="Times,serif" font-size="14.00">5</text>
<polyline fill="none" stroke="black" points="258,-174 258,-197 "/>
<text text-anchor="middle" x="284.5" y="-181.8" font-family="Times,serif" font-size="14.00">/</text>
</g>
<!-- node2_1&#45;&gt;node5_3 -->
<g id="edge2" class="edge">
<title>node2_1:p&#45;&gt;node5_3:n</title>
<path fill="none" stroke="black" d="M167,-185.5C179,-185.5 184.25,-185.5 192.88,-185.5"/>
<polygon fill="black" stroke="black" points="193,-189 203,-185.5 193,-182 193,-189"/>
</g>
<!-- node4_2 -->
<g id="node11" class="node">
<title>node4_2</title>
<polygon fill="none" stroke="black" points="203,-102 203,-125 311,-125 311,-102 203,-102"/>
<text text-anchor="middle" x="230.5" y="-109.8" font-family="Times,serif" font-size="14.00">4</text>
<polyline fill="none" stroke="black" points="258,-102 258,-125 "/>
<text text-anchor="middle" x="284.5" y="-109.8" font-family="Times,serif" font-size="14.00">/</text>
</g>
<!-- node2_2&#45;&gt;node4_2 -->
<g id="edge8" class="edge">
<title>node2_2:p&#45;&gt;node4_2:n</title>
<path fill="none" stroke="black" d="M167,-113.5C179,-113.5 184.25,-113.5 192.88,-113.5"/>
<polygon fill="black" stroke="black" points="193,-117 203,-113.5 193,-110 193,-117"/>
</g>
<!-- node5_2 -->
<g id="node14" class="node">
<title>node5_2</title>
<polygon fill="none" stroke="black" points="203,-66 203,-89 311,-89 311,-66 203,-66"/>
<text text-anchor="middle" x="230.5" y="-73.8" font-family="Times,serif" font-size="14.00">5</text>
<polyline fill="none" stroke="black" points="258,-66 258,-89 "/>
<text text-anchor="middle" x="284.5" y="-73.8" font-family="Times,serif" font-size="14.00"> </text>
</g>
<!-- node2_3&#45;&gt;node5_2 -->
<g id="edge10" class="edge">
<title>node2_3:p&#45;&gt;node5_2:n</title>
<path fill="none" stroke="black" d="M167,-77.5C179,-77.5 184.25,-77.5 192.88,-77.5"/>
<polygon fill="black" stroke="black" points="193,-81 203,-77.5 193,-74 193,-81"/>
</g>
<!-- node3_1 -->
<g id="node8" class="node">
<title>node3_1</title>
<polygon fill="none" stroke="black" points="347,-138 347,-161 455,-161 455,-138 347,-138"/>
<text text-anchor="middle" x="374.5" y="-145.8" font-family="Times,serif" font-size="14.00">3</text>
<polyline fill="none" stroke="black" points="402,-138 402,-161 "/>
<text text-anchor="middle" x="428.5" y="-145.8" font-family="Times,serif" font-size="14.00"> </text>
</g>
<!-- node4_1 -->
<g id="node10" class="node">
<title>node4_1</title>
<polygon fill="none" stroke="black" points="491,-138 491,-161 599,-161 599,-138 491,-138"/>
<text text-anchor="middle" x="518.5" y="-145.8" font-family="Times,serif" font-size="14.00">4</text>
<polyline fill="none" stroke="black" points="546,-138 546,-161 "/>
<text text-anchor="middle" x="572.5" y="-145.8" font-family="Times,serif" font-size="14.00">/</text>
</g>
<!-- node3_1&#45;&gt;node4_1 -->
<g id="edge6" class="edge">
<title>node3_1:p&#45;&gt;node4_1</title>
<path fill="none" stroke="black" d="M455,-149.5C463.33,-149.5 472.1,-149.5 480.75,-149.5"/>
<polygon fill="black" stroke="black" points="480.82,-153 490.82,-149.5 480.82,-146 480.82,-153"/>
</g>
<!-- node3_2 -->
<g id="node9" class="node">
<title>node3_2</title>
<polygon fill="none" stroke="black" points="347,-66 347,-89 455,-89 455,-66 347,-66"/>
<text text-anchor="middle" x="374.5" y="-73.8" font-family="Times,serif" font-size="14.00">3</text>
<polyline fill="none" stroke="black" points="402,-66 402,-89 "/>
<text text-anchor="middle" x="428.5" y="-73.8" font-family="Times,serif" font-size="14.00">/</text>
</g>
<!-- node4_3&#45;&gt;node1_2 -->
<g id="edge13" class="edge">
<title>node4_3:p&#45;&gt;node1_2:n</title>
<path fill="none" stroke="black" d="M167,-41.5C179,-41.5 184.25,-41.5 192.88,-41.5"/>
<polygon fill="black" stroke="black" points="193,-45 203,-41.5 193,-38 193,-45"/>
</g>
<!-- node5_1&#45;&gt;node3_1 -->
<g id="edge5" class="edge">
<title>node5_1:p&#45;&gt;node3_1:n</title>
<path fill="none" stroke="black" d="M311,-149.5C323,-149.5 328.25,-149.5 336.88,-149.5"/>
<polygon fill="black" stroke="black" points="337,-153 347,-149.5 337,-146 337,-153"/>
</g>
<!-- node5_2&#45;&gt;node3_2 -->
<g id="edge11" class="edge">
<title>node5_2:p&#45;&gt;node3_2</title>
<path fill="none" stroke="black" d="M311,-77.5C319.33,-77.5 328.1,-77.5 336.75,-77.5"/>
<polygon fill="black" stroke="black" points="336.82,-81 346.82,-77.5 336.82,-74 336.82,-81"/>
</g>
</g>
</svg>
